<svg width="80" height="80" viewBox="0 0 80 80" fill="none" xmlns="http://www.w3.org/2000/svg">
<circle cx="40" cy="40" r="40" fill="#ccf3fc"/>
<path d="M15.456 28.536V51H9.984V28.536H15.456ZM44.8615 28.536V51H39.3895V37.528L34.3655 51H29.9495L24.8935 37.496V51H19.4215V28.536H25.8855L32.1895 44.088L38.4295 28.536H44.8615ZM47.8685 39.736C47.8685 37.5173 48.3485 35.544 49.3085 33.816C50.2685 32.0667 51.6018 30.712 53.3085 29.752C55.0365 28.7707 56.9885 28.28 59.1645 28.28C61.8312 28.28 64.1138 28.984 66.0125 30.392C67.9112 31.8 69.1805 33.72 69.8205 36.152H63.8045C63.3565 35.2133 62.7165 34.4987 61.8845 34.008C61.0738 33.5173 60.1458 33.272 59.1005 33.272C57.4152 33.272 56.0498 33.8587 55.0045 35.032C53.9592 36.2053 53.4365 37.7733 53.4365 39.736C53.4365 41.6987 53.9592 43.2667 55.0045 44.44C56.0498 45.6133 57.4152 46.2 59.1005 46.2C60.1458 46.2 61.0738 45.9547 61.8845 45.464C62.7165 44.9733 63.3565 44.2587 63.8045 43.32H69.8205C69.1805 45.752 67.9112 47.672 66.0125 49.08C64.1138 50.4667 61.8312 51.16 59.1645 51.16C56.9885 51.16 55.0365 50.68 53.3085 49.72C51.6018 48.7387 50.2685 47.384 49.3085 45.656C48.3485 43.928 47.8685 41.9547 47.8685 39.736Z" fill="#4aaac7"/>
</svg>
